<svg xmlns="http://www.w3.org/2000/svg" xmlns:xlink="http://www.w3.org/1999/xlink" width="27" height="26"><defs><path id="a" d="M8.977 2.205c0 2.74-1.02 5.048-2.789 6.615H3.167V6.561c.99-.638 1.649-1.591 1.866-2.716H0V.364h8.806c.111.589.17 1.202.17 1.841z"/><path id="c" d="M9.35 8C5.697 8 2.534 5.983.995 3.042V.71h3.124a5.553 5.553 0 0 0 5.233 3.71c1.258 0 2.329-.319 3.166-.859L15.54 5.82C13.992 7.194 11.875 8 9.35 8z"/><path id="e" d="M4.118 6.71L.994 9.042A8.731 8.731 0 0 1 0 5 8.74 8.74 0 0 1 .994.958h3.124V3.29A5.227 5.227 0 0 0 3.825 5c0 .593.106 1.17.293 1.71z"/><path id="g" d="M9.35 3.58a5.553 5.553 0 0 0-5.232 3.71L.994 4.958C2.533 2.017 5.696 0 9.351 0c2.52 0 4.637.892 6.256 2.344l-2.682 2.581c-.969-.891-2.202-1.345-3.574-1.345z"/></defs><g fill="none" fill-rule="evenodd"><rect width="26" height="26" x=".584" fill="#FFF" rx="3.5"/><g transform="translate(13.584 11)"><mask id="b" fill="#fff"><use xlink:href="#a"/></mask><path fill="#318AF5" d="M-.02 8.92h9.1V.28h-9.1z" mask="url(#b)"/></g><g transform="translate(4.234 14)"><mask id="d" fill="#fff"><use xlink:href="#c"/></mask><path fill="#3DA751" d="M.977 8.08h14.587V.64H.977z" mask="url(#d)"/></g><g transform="translate(4.234 8)"><mask id="f" fill="#fff"><use xlink:href="#e"/></mask><path fill="#FDB900" d="M-.02 9.16h4.238V.88H-.02z" mask="url(#f)"/></g><g transform="translate(4.234 4)"><mask id="h" fill="#fff"><use xlink:href="#g"/></mask><path fill="#EA3E36" d="M.977 7.4h14.711V-.04H.977z" mask="url(#h)"/></g></g></svg>