<svg xmlns="http://www.w3.org/2000/svg" width="32" height="20"><g fill="none" fill-rule="evenodd"><path fill="#DC4E41" d="M.226 10.046c-.085 4.107 2.744 8.027 6.636 9.305 3.665 1.232 8.172.31 10.611-2.829 1.781-2.2 2.186-5.132 1.993-7.871-3.14-.028-6.278-.02-9.413-.014-.005 1.118 0 2.232.005 3.35 1.88.052 3.76.028 5.639.066-.474 1.626-1.555 3.14-3.196 3.727-3.167 1.395-7.208-.428-8.205-3.75-1.203-3.182.767-7.022 4.018-7.947 2.016-.71 4.093.089 5.818 1.137.874-.818 1.692-1.692 2.496-2.575-1.96-1.64-4.48-2.646-7.068-2.425C4.48.28.033 4.97.226 10.046zm25.349-4.23c-.009.935-.019 1.875-.024 2.81-.94.01-1.874.014-2.81.02v2.8c.936.005 1.876.01 2.81.02.01.934.01 1.87.02 2.81.93 0 1.865-.005 2.8 0 .005-.94.01-1.876.02-2.816l2.81-.014v-2.8c-.935-.005-1.875-.01-2.81-.02-.006-.935-.015-1.875-.02-2.81h-2.796z"/><path d="M.226 10.046C.033 4.971 4.479.28 9.559.22c2.59-.221 5.109.784 7.068 2.424-.804.884-1.621 1.758-2.495 2.576-1.725-1.049-3.802-1.847-5.818-1.138-3.252.926-5.222 4.766-4.018 7.947.996 3.322 5.038 5.146 8.205 3.75 1.64-.587 2.721-2.1 3.196-3.726-1.88-.038-3.76-.014-5.64-.066-.004-1.118-.009-2.233-.004-3.35 3.134-.006 6.273-.015 9.413.013.192 2.74-.212 5.673-1.993 7.872-2.44 3.139-6.946 4.06-10.612 2.829-3.89-1.278-6.72-5.198-6.635-9.305zm25.349-4.23h2.796c.005.935.014 1.875.02 2.81.934.01 1.874.014 2.81.02v2.8l-2.81.014c-.01.94-.015 1.875-.02 2.815-.935-.005-1.87 0-2.8 0-.01-.94-.01-1.875-.02-2.81-.934-.01-1.874-.014-2.81-.02v-2.8c.936-.005 1.87-.01 2.81-.019.005-.935.015-1.875.024-2.81z" fill="#FFF"/></g></svg>